<?xml version="1.0" standalone="no"?>
<!DOCTYPE svg PUBLIC "-//W3C//DTD SVG 20010904//EN"
 "http://www.w3.org/TR/2001/REC-SVG-20010904/DTD/svg10.dtd">
<svg version="1.0" xmlns="http://www.w3.org/2000/svg"
 width="1983.000000pt" height="793.000000pt" viewBox="0 0 1983.000000 793.000000"
 preserveAspectRatio="xMidYMid meet">

<g transform="translate(0.000000,793.000000) scale(0.100000,-0.100000)"
fill="#000000" stroke="none">
<path d="M18822 6647 c6 -12 24 -40 39 -62 18 -25 30 -56 32 -80 2 -35 -1 -41
-29 -55 -18 -8 -49 -32 -70 -52 -21 -21 -44 -38 -51 -38 -7 0 -13 -4 -13 -10
0 -5 -7 -10 -15 -10 -8 0 -15 -4 -15 -10 0 -5 -15 -10 -33 -10 -27 0 -33 -4
-34 -22 -1 -13 -7 -24 -13 -26 -5 -2 -10 -8 -10 -13 0 -17 -63 -69 -107 -90
-41 -19 -52 -27 -127 -96 -20 -18 -38 -33 -42 -33 -11 0 -43 -45 -44 -62 0 -9
-4 -20 -10 -23 -5 -3 -10 -14 -10 -24 0 -10 -6 -23 -13 -29 -7 -6 -19 -34 -27
-62 -7 -27 -17 -50 -21 -50 -5 0 -6 -8 -3 -17 5 -16 4 -16 -5 -2 -18 28 -27
188 -33 571 -2 98 -6 174 -9 170 -21 -23 -29 -170 -29 -535 0 -384 -1 -398
-20 -417 -20 -20 -33 -20 -633 -20 l-614 0 -21 23 c-20 22 -21 30 -24 462 l-3
440 -25 55 c-38 85 -77 114 -46 34 22 -57 26 -141 6 -129 -6 3 -13 -1 -16 -9
-3 -9 -12 -16 -19 -16 -7 0 -25 -16 -39 -35 -15 -19 -35 -35 -44 -36 -10 0
-12 -3 -4 -6 17 -7 15 -23 -4 -23 -10 0 -14 -6 -10 -15 3 -9 0 -15 -8 -15 -8
0 -16 -7 -20 -15 -3 -8 -16 -15 -28 -15 -13 0 -33 -11 -46 -25 -15 -15 -29
-22 -40 -18 -9 3 -14 3 -10 -2 10 -10 -17 -35 -39 -35 -15 0 -16 -2 -3 -10 13
-8 12 -10 -3 -10 -10 0 -21 -10 -26 -22 -5 -15 -10 -18 -15 -9 -6 9 -15 7 -34
-11 -14 -13 -22 -17 -18 -10 4 6 2 12 -4 12 -6 0 -13 -7 -17 -15 -3 -9 -23
-25 -45 -36 -21 -11 -43 -30 -47 -42 -5 -12 -25 -40 -45 -62 -20 -22 -36 -45
-36 -51 0 -6 -11 -20 -25 -32 -14 -12 -25 -32 -25 -44 0 -13 -4 -18 -9 -13
-10 11 -17 124 -27 423 -5 118 -11 192 -17 192 -6 0 -7 -3 -4 -7 4 -3 2 -12
-5 -20 -17 -21 -26 -2591 -9 -2688 16 -90 52 -158 117 -221 79 -78 139 -98
284 -99 104 0 120 3 173 27 75 35 130 79 168 134 65 95 63 77 69 657 l5 529
24 19 c22 18 47 19 622 19 l598 0 28 -24 28 -24 5 -539 5 -538 27 -55 c34 -70
95 -133 158 -165 75 -38 173 -58 245 -50 184 22 308 109 371 262 l24 58 0
1360 c0 1061 -3 1373 -13 1421 -15 68 -62 158 -79 148 -6 -4 -8 -3 -5 3 7 12
-17 36 -39 39 -11 2 -11 -2 -2 -19z m-665 -219 c-3 -7 -5 -2 -5 12 0 14 2 19
5 13 2 -7 2 -19 0 -25z m48 -778 c-4 -6 -1 -17 5 -25 6 -8 9 -19 6 -24 -4 -5
-8 -35 -10 -66 -9 -130 -12 -130 -576 -129 -693 3 -710 4 -773 57 l-38 32 633
3 c560 4 636 6 660 20 26 15 39 36 68 110 7 17 17 32 22 32 5 0 6 -5 3 -10z"/>
<path d="M18218 6628 c-7 -13 -11 -29 -9 -37 1 -8 -2 -10 -10 -5 -8 5 -10 3
-4 -5 5 -9 15 -5 36 15 32 31 43 67 12 43 -11 -10 -14 -10 -9 -1 4 6 5 12 2
12 -3 0 -11 -10 -18 -22z"/>
<path d="M10803 6574 c-8 -4 -8 -14 3 -39 20 -48 19 -115 -1 -115 -9 0 -23
-13 -32 -29 -9 -15 -32 -38 -50 -51 -18 -12 -31 -25 -29 -29 3 -4 -18 -17 -45
-29 -27 -13 -47 -27 -44 -31 2 -5 -8 -11 -24 -14 -16 -3 -35 -13 -44 -21 -8
-8 -26 -18 -41 -22 -14 -3 -29 -10 -32 -15 -3 -5 -11 -6 -17 -3 -7 4 -9 4 -5
-1 7 -8 -15 -35 -29 -35 -4 0 -14 -9 -21 -21 -8 -12 -19 -18 -28 -15 -8 3 -14
0 -14 -6 0 -6 -3 -8 -6 -5 -7 6 -64 -49 -64 -62 0 -3 -11 -19 -25 -34 -14 -15
-22 -27 -18 -27 4 0 -10 -16 -30 -35 -20 -19 -37 -42 -37 -51 0 -9 -10 -29
-21 -46 -27 -38 -36 -26 -38 55 -1 34 -6 109 -10 167 -5 58 -8 176 -7 263 0
87 -2 148 -6 135 -3 -13 -6 -17 -7 -9 -1 8 -4 11 -8 7 -5 -4 -10 -360 -13
-791 -4 -604 -8 -787 -17 -796 -17 -17 -40 6 -134 128 -41 53 -93 119 -116
147 -23 28 -81 101 -128 161 -102 131 -242 310 -328 419 -34 43 -91 115 -127
161 -36 46 -93 118 -127 162 -35 43 -114 144 -177 224 -63 80 -122 146 -130
146 -9 0 -16 -2 -16 -5 0 -4 302 -407 403 -536 88 -113 90 -116 74 -116 -21 0
-76 56 -83 85 -3 14 -12 25 -20 25 -16 0 -64 61 -64 82 0 9 -13 20 -28 26 -34
12 -104 69 -192 156 -74 73 -156 118 -171 95 -8 -12 -11 -11 -20 3 -10 17 -14
17 -99 2 -24 -4 -24 -4 -6 11 27 20 18 19 -29 -5 -22 -11 -54 -20 -72 -20 -18
0 -33 -4 -33 -8 0 -4 -15 -8 -32 -8 -21 0 -32 -4 -30 -12 1 -7 -2 -12 -8 -12
-5 0 -10 5 -10 10 0 6 -8 10 -17 10 -15 0 -16 -2 -3 -10 12 -8 11 -10 -7 -10
-13 0 -23 -5 -23 -11 0 -5 -4 -7 -10 -4 -5 3 -10 2 -10 -3 0 -6 -10 -8 -22 -5
-16 3 -19 2 -10 -4 9 -7 6 -12 -13 -21 -14 -7 -35 -12 -46 -12 -11 0 -18 -4
-15 -9 8 -13 -17 -31 -48 -33 -14 -1 -26 -6 -26 -10 0 -4 -6 -8 -13 -8 -7 0
-18 -9 -25 -20 -7 -11 -18 -17 -27 -14 -10 4 -15 0 -15 -15 0 -12 -4 -21 -10
-21 -5 0 -10 -5 -10 -10 0 -6 -11 -23 -26 -38 -14 -15 -28 -39 -31 -54 -3 -16
-9 -28 -14 -28 -5 0 -9 -9 -9 -19 0 -11 -5 -21 -11 -23 -5 -2 -11 -10 -12 -19
-2 -9 -10 -27 -18 -40 -9 -13 -19 -34 -23 -46 -9 -27 -23 -30 -30 -5 -2 9 -10
146 -17 305 -7 158 -16 287 -21 287 -4 0 -8 11 -8 25 0 14 4 25 10 25 5 0 7 7
3 16 -25 66 -28 -50 -32 -1316 l-3 -1309 22 -73 c20 -65 29 -80 93 -143 55
-55 84 -76 124 -89 205 -68 393 -12 502 148 58 86 56 43 61 941 4 727 7 830
20 833 8 1 37 -25 64 -60 28 -35 73 -92 101 -128 28 -36 151 -193 273 -350
122 -157 285 -366 362 -465 78 -99 182 -232 231 -295 382 -488 426 -538 523
-587 97 -49 153 -63 255 -63 159 0 253 34 354 129 58 54 93 111 119 194 18 60
19 108 20 1372 1 1038 -1 1321 -11 1362 -7 29 -17 50 -22 47 -5 -3 -6 2 -3 10
3 9 1 16 -6 16 -6 0 -8 5 -5 10 3 6 1 10 -5 10 -6 0 -8 5 -5 10 7 11 6 11 -12
4z m-1519 -873 c-6 -7 -34 28 -34 42 0 6 9 0 20 -13 11 -13 17 -26 14 -29z
m809 -899 c-43 -31 -113 -21 -121 19 -2 11 6 14 35 11 32 -3 43 1 68 28 l30
32 3 -38 c3 -28 -1 -42 -15 -52z"/>
<path d="M12040 6574 c0 -7 9 -31 20 -55 11 -24 20 -55 19 -69 0 -27 -30 -70
-48 -70 -6 0 -11 -7 -11 -15 0 -8 -9 -20 -20 -27 -11 -7 -20 -16 -20 -20 0
-14 -43 -57 -52 -52 -4 3 -8 0 -8 -6 0 -7 -7 -9 -16 -6 -8 3 -13 2 -10 -3 6
-9 -39 -51 -55 -51 -5 0 -8 -4 -5 -9 4 -5 -2 -7 -12 -4 -11 2 -27 -3 -36 -12
-9 -10 -20 -15 -23 -12 -3 4 -14 2 -24 -4 -15 -7 -21 -6 -25 6 -3 8 -10 15
-15 15 -4 0 -5 -7 -2 -17 4 -11 3 -14 -5 -9 -7 4 -12 2 -12 -3 0 -6 -9 -11
-20 -11 -11 0 -20 -4 -20 -10 0 -5 -6 -10 -14 -10 -7 0 -22 -11 -32 -25 -10
-14 -25 -23 -32 -20 -7 3 -11 1 -8 -4 5 -8 -3 -18 -61 -70 -18 -16 -33 -34
-33 -39 0 -6 -5 -12 -10 -14 -6 -2 -12 -13 -13 -26 0 -12 -5 -22 -10 -22 -4 0
-6 -3 -4 -7 6 -10 -36 -86 -49 -90 -5 -2 -10 5 -11 14 -8 109 -27 481 -26 523
1 39 -1 48 -7 30 -6 -22 -8 -21 -11 15 -12 114 -20 -655 -17 -1625 l3 -1095
32 -67 c69 -145 204 -228 373 -228 193 0 343 105 406 283 13 36 15 236 14
1395 0 744 -3 1365 -6 1380 -16 72 -64 177 -64 142 0 -13 -2 -13 -10 0 -5 8
-10 10 -10 4z"/>
<path d="M7145 6516 c17 -14 33 -26 37 -26 23 0 119 -132 106 -145 -3 -3 -19
-7 -37 -8 -17 -1 -31 -6 -31 -11 0 -4 -46 -5 -102 -1 -57 4 -127 9 -155 10
-29 1 -72 5 -95 9 -24 3 -77 8 -118 12 -95 7 -94 7 -102 18 -4 6 -12 5 -21 -2
-9 -8 -24 -9 -43 -3 -45 12 -171 14 -179 2 -3 -6 -17 -11 -31 -11 -16 0 -23
-4 -18 -11 4 -8 1 -8 -12 -1 -11 5 -39 10 -62 11 -24 0 -48 4 -54 7 -5 3 -39
8 -74 10 -47 2 -76 -2 -110 -16 -24 -11 -55 -19 -67 -19 -12 0 -51 -7 -87 -16
-36 -9 -77 -18 -91 -20 -14 -2 -55 -17 -91 -34 -36 -17 -71 -31 -79 -31 -12 0
-180 -77 -243 -111 -14 -8 -16 -8 -11 3 6 10 5 11 -6 1 -7 -7 -23 -13 -36 -13
-13 0 -23 -4 -23 -10 0 -5 -9 -10 -19 -10 -11 0 -26 -8 -33 -18 -7 -9 -30 -28
-50 -42 -21 -14 -38 -27 -38 -30 0 -3 -11 -7 -25 -8 -14 -1 -37 -13 -51 -27
-14 -14 -43 -33 -65 -42 -21 -8 -39 -21 -39 -29 0 -8 -6 -14 -13 -14 -7 0 -35
-20 -63 -45 -28 -24 -54 -41 -58 -38 -3 3 -6 -1 -6 -11 0 -10 -5 -14 -11 -10
-16 10 -4 129 23 228 11 43 45 126 74 184 29 59 51 108 49 110 -2 2 -8 -6 -15
-17 -6 -12 -15 -19 -20 -16 -6 3 -7 -1 -4 -10 4 -10 2 -15 -6 -13 -21 5 -97
-150 -126 -257 -24 -89 -27 -118 -28 -265 -1 -143 2 -176 22 -248 76 -279 278
-480 610 -606 99 -38 390 -127 577 -176 154 -41 284 -84 361 -121 76 -36 148
-110 164 -169 34 -127 -67 -252 -242 -296 -108 -28 -358 -26 -486 4 -119 27
-250 79 -382 152 -119 65 -155 78 -241 90 -177 25 -345 -65 -422 -228 -28 -59
-32 -77 -32 -152 0 -77 3 -92 33 -153 19 -37 55 -89 82 -115 92 -90 376 -218
625 -281 645 -162 1330 -40 1689 299 215 204 305 412 293 675 -9 198 -57 328
-176 483 -174 225 -416 359 -906 502 -383 111 -453 134 -530 171 -138 67 -185
127 -185 234 0 258 393 353 841 205 64 -21 147 -54 185 -73 101 -51 205 -86
277 -93 171 -17 335 74 405 224 21 46 26 72 27 137 0 111 -23 171 -92 243 -30
31 -51 51 -48 44 4 -8 -10 -3 -31 11 -22 13 -50 29 -64 36 -22 11 -22 9 5 -13z
m-1453 -927 c79 -66 294 -155 420 -173 26 -4 54 -14 62 -22 8 -8 27 -16 43
-17 15 -2 37 -7 48 -11 66 -25 127 -47 175 -63 30 -10 66 -26 80 -36 l25 -18
-40 6 c-22 4 -69 13 -105 20 -190 41 -253 56 -335 80 -49 14 -114 33 -144 41
-30 8 -92 33 -139 57 -71 35 -90 50 -118 92 -31 46 -44 85 -27 85 4 0 28 -18
55 -41z m-582 -1290 c0 -8 13 -9 40 -5 33 5 41 3 50 -15 7 -11 10 -22 8 -23
-2 -1 -48 -15 -102 -30 -54 -15 -132 -46 -172 -67 -67 -36 -104 -48 -104 -33
0 17 44 74 73 96 51 39 90 56 145 64 29 3 49 10 46 15 -3 5 0 9 5 9 6 0 11 -5
11 -11z m358 -118 c160 -80 286 -116 472 -136 83 -9 174 -13 202 -10 80 9 222
36 233 45 6 4 31 17 57 28 36 16 46 17 41 6 -11 -30 -94 -59 -299 -104 -31 -7
-107 -9 -195 -7 -120 4 -157 9 -223 31 -43 14 -84 26 -91 26 -33 0 -224 92
-260 125 -22 20 -47 40 -55 46 -43 26 13 2 118 -50z m1044 -43 c-6 -6 -15 -8
-19 -4 -4 4 -1 11 7 16 8 5 17 7 19 4 3 -2 -1 -10 -7 -16z"/>
<path d="M16040 6510 c-8 -5 -11 -12 -7 -16 4 -4 13 -2 19 4 15 15 7 24 -12
12z"/>
<path d="M15160 6481 c27 -23 45 -28 34 -9 -4 7 -3 8 5 4 6 -4 9 -11 7 -15 -3
-4 40 -46 96 -92 90 -75 228 -220 228 -240 0 -8 -42 2 -95 22 -48 18 -130 59
-119 59 14 1 -76 44 -123 59 -23 8 -40 17 -38 21 3 5 -18 7 -45 6 -28 -2 -53
1 -56 5 -5 8 -108 25 -134 22 -8 -1 -33 3 -55 9 -22 6 -47 10 -56 9 -9 -1 -21
5 -28 13 -9 10 -19 12 -34 7 -12 -5 -31 -5 -42 -1 -11 4 -32 4 -47 -1 -14 -4
-28 -6 -30 -4 -2 2 -41 6 -88 9 -47 3 -129 8 -183 12 -67 4 -101 3 -111 -5 -8
-7 -45 -13 -82 -14 -38 -1 -75 -6 -82 -10 -7 -5 -25 -10 -40 -13 -44 -7 -134
-35 -179 -55 -24 -11 -63 -19 -88 -19 -28 0 -44 -4 -40 -10 3 -6 -5 -10 -19
-10 -14 0 -28 -4 -31 -10 -3 -5 -17 -10 -31 -10 -13 0 -24 -4 -24 -10 0 -5
-11 -10 -23 -10 -13 0 -32 -9 -42 -20 -10 -11 -28 -20 -40 -20 -11 0 -25 -4
-31 -9 -5 -6 -51 -30 -102 -55 -51 -25 -95 -52 -98 -60 -3 -8 -19 -18 -35 -21
-16 -4 -29 -10 -29 -15 0 -5 -10 -12 -22 -15 -13 -4 -35 -20 -49 -35 -14 -16
-56 -42 -93 -59 -37 -17 -79 -43 -94 -56 -15 -14 -30 -25 -34 -25 -3 0 -25
-17 -47 -37 -22 -21 -54 -49 -71 -63 -104 -85 -231 -204 -260 -243 l-28 -37 5
42 c14 103 122 358 209 491 27 39 81 111 121 159 68 81 91 115 61 90 -7 -6
-17 -12 -23 -14 -5 -1 -9 -6 -8 -9 1 -4 -15 -20 -36 -37 -48 -39 -139 -158
-211 -277 -90 -150 -154 -317 -206 -540 -27 -113 -29 -133 -29 -350 0 -204 3
-242 23 -334 72 -321 202 -569 411 -784 297 -305 663 -479 1112 -528 224 -25
549 3 769 65 167 47 359 132 502 222 135 86 339 275 417 389 81 116 97 254 44
368 -42 88 -89 137 -175 181 -94 47 -174 61 -264 47 -113 -17 -184 -60 -305
-182 -130 -131 -196 -180 -324 -241 -145 -69 -232 -90 -401 -95 -165 -6 -256
9 -404 65 -183 70 -361 218 -459 380 -209 348 -150 818 144 1130 195 208 421
318 677 329 197 9 347 -27 510 -123 65 -38 117 -83 243 -210 196 -197 217
-208 390 -209 108 0 111 1 189 39 114 57 183 149 205 272 18 98 -9 190 -94
324 -57 89 -315 337 -337 324 -6 -4 -8 -3 -5 3 8 13 -67 64 -98 67 -12 2 -28
6 -36 10 -8 4 -3 -2 11 -13z m106 -52 c3 -6 -5 -3 -20 6 -14 10 -26 19 -26 22
0 7 39 -17 46 -28z m94 -1901 c23 -9 19 -11 -40 -27 -36 -10 -107 -39 -159
-65 -51 -26 -104 -52 -117 -57 -24 -9 -24 -8 -10 20 26 50 69 93 111 112 22
10 36 19 30 19 -5 0 -5 4 2 8 16 10 151 2 183 -10z m-1739 -329 c116 -77 151
-94 260 -124 145 -41 274 -49 494 -28 93 9 128 18 225 56 109 43 124 41 35 -5
-46 -24 -189 -74 -252 -88 -48 -11 -306 -14 -373 -4 -58 8 -133 33 -245 81
-132 55 -211 111 -249 172 -10 16 -16 19 105 -60z"/>
<path d="M3661 6441 c29 -22 69 -44 69 -37 0 7 -73 56 -84 56 -5 0 2 -8 15
-19z"/>
<path d="M8750 6456 c0 -2 8 -10 18 -17 15 -13 16 -12 3 4 -13 16 -21 21 -21
13z"/>
<path d="M16020 6444 c0 -8 5 -12 10 -9 6 3 10 10 10 16 0 5 -4 9 -10 9 -5 0
-10 -7 -10 -16z"/>
<path d="M3755 6391 c-18 -7 -17 -9 10 -27 75 -48 264 -248 321 -339 l18 -30
-22 19 c-12 11 -22 16 -22 13 0 -18 -94 31 -144 76 -11 9 -30 17 -42 17 -12 0
-27 7 -34 15 -7 8 -18 15 -25 15 -8 0 -26 7 -42 15 -15 8 -40 17 -54 19 -14 3
-42 17 -63 31 -20 14 -43 25 -51 25 -8 0 -15 3 -15 8 0 4 -21 8 -47 10 -25 2
-54 7 -63 12 -10 5 -46 11 -81 14 -35 2 -64 5 -64 6 0 1 -13 3 -30 5 -16 1
-30 4 -30 5 0 1 -9 4 -20 6 -11 2 -37 7 -59 13 -21 5 -45 7 -53 4 -8 -3 -19 0
-24 8 -6 11 -9 11 -9 1 0 -9 -5 -10 -19 -2 -11 5 -31 10 -45 10 -14 0 -26 5
-26 10 0 14 -30 12 -35 -2 -8 -19 -177 -27 -259 -12 -21 3 -54 1 -75 -5 -32
-10 -155 -22 -218 -21 -13 0 -23 -5 -23 -10 0 -5 -7 -7 -15 -4 -8 3 -31 -3
-50 -15 -20 -12 -53 -21 -76 -21 -21 0 -39 -4 -39 -9 0 -5 -12 -8 -26 -8 -15
0 -29 -5 -33 -10 -3 -5 -26 -15 -51 -22 -25 -7 -54 -17 -65 -21 -38 -15 -105
-33 -120 -33 -8 0 -15 -4 -15 -7 0 -4 -13 -10 -29 -13 -16 -3 -36 -13 -44 -22
-9 -8 -21 -15 -28 -15 -7 0 -45 -22 -85 -50 -40 -27 -77 -50 -83 -50 -6 0 -11
-4 -11 -10 0 -5 -7 -10 -14 -10 -25 0 -150 -67 -176 -94 -13 -15 -43 -36 -67
-48 -24 -12 -43 -25 -43 -30 0 -4 -7 -8 -15 -8 -8 0 -15 -4 -15 -10 0 -5 -6
-10 -13 -10 -8 0 -22 -9 -32 -20 -10 -11 -24 -20 -31 -20 -7 0 -33 -26 -57
-57 -62 -81 -143 -153 -157 -139 -7 7 -16 7 -30 -1 -18 -12 -18 -11 -3 40 30
103 111 278 171 371 38 58 169 226 201 256 14 14 32 33 40 43 12 15 12 17 -3
11 -9 -3 -16 -10 -16 -15 0 -5 -3 -8 -7 -7 -5 1 -38 -27 -74 -62 -233 -228
-404 -592 -449 -954 -16 -125 -7 -411 15 -516 46 -211 125 -399 241 -576 104
-160 301 -358 458 -462 338 -223 717 -324 1156 -309 254 9 425 46 653 139 l78
32 62 -60 c240 -231 264 -252 332 -284 60 -29 83 -35 161 -38 111 -5 192 18
276 78 99 71 152 173 153 295 0 72 -4 88 -34 149 -28 57 -57 92 -167 199 -74
72 -134 135 -134 140 0 5 15 27 34 50 125 155 238 394 289 612 73 312 58 605
-49 917 -74 217 -176 389 -338 569 -88 98 -223 220 -231 209 -2 -3 -10 2 -17
11 -9 12 -19 15 -33 10z m-920 -422 c192 -32 380 -132 525 -278 249 -251 333
-594 224 -920 -28 -83 -84 -186 -101 -186 -6 0 -93 78 -192 172 -196 187 -247
221 -359 243 -278 55 -531 -191 -458 -444 25 -86 50 -119 195 -255 72 -68 131
-129 131 -137 0 -22 -47 -29 -185 -28 -233 1 -418 68 -615 221 -98 77 -169
166 -230 288 -65 129 -89 215 -96 345 -15 259 72 491 256 684 93 97 171 154
291 210 199 93 399 121 614 85z m1300 -9 c3 -5 1 -10 -4 -10 -6 0 -11 5 -11
10 0 6 2 10 4 10 3 0 8 -4 11 -10z m-1249 -1000 c5 0 27 -15 47 -34 l38 -34
-72 -17 c-87 -19 -175 -55 -252 -103 -41 -25 -61 -32 -68 -25 -20 20 9 80 59
124 26 23 40 38 32 34 -13 -8 -13 -7 -1 8 20 25 145 59 186 51 11 -2 25 -4 31
-4z m694 -390 c0 -20 -38 -55 -72 -65 -27 -9 -68 2 -68 19 0 8 15 17 35 20 19
4 47 18 62 31 30 25 43 24 43 -5z m-1650 -240 c0 -5 7 -10 15 -10 9 0 27 -12
41 -27 24 -26 57 -47 185 -117 179 -98 482 -127 642 -61 26 11 22 -27 -4 -44
-58 -36 -369 -21 -499 24 -112 39 -269 120 -319 165 -25 22 -48 40 -52 40 -5
0 -13 9 -19 20 -7 14 -7 20 0 20 5 0 10 -4 10 -10z"/>
<path d="M13010 6290 c-8 -5 -12 -12 -9 -15 4 -3 12 1 19 10 14 17 11 19 -10
5z"/>
<path d="M12681 1664 c-27 -34 -27 -50 -1 -24 11 11 20 23 19 26 0 4 5 11 13
15 9 6 9 9 1 9 -6 0 -21 -12 -32 -26z"/>
<path d="M15672 1633 c-7 -10 -10 -12 -7 -5 8 16 -10 15 -24 -2 -6 -7 -25 -16
-41 -20 -40 -7 -38 -21 3 -21 41 1 107 37 107 59 0 13 -26 5 -38 -11z m-28
-28 c-4 -8 -11 -15 -16 -15 -6 0 -5 6 2 15 7 8 14 15 16 15 2 0 1 -7 -2 -15z"/>
<path d="M12587 1603 c-21 -9 -34 -20 -30 -26 3 -5 1 -7 -5 -3 -14 8 -93 -22
-110 -43 -7 -9 -16 -15 -20 -15 -4 1 -11 0 -17 -2 -13 -4 -72 -14 -113 -19
-18 -2 -37 -7 -41 -10 -7 -4 -298 -30 -376 -33 -174 -8 -194 -12 -195 -46 0
-4 123 -6 273 -3 257 4 277 6 367 31 128 36 259 102 287 144 12 18 23 27 25
20 3 -8 6 -9 11 -1 12 18 -16 21 -56 6z m3 -37 c0 -2 -8 -10 -17 -17 -16 -13
-17 -12 -4 4 13 16 21 21 21 13z"/>
<path d="M6166 1601 l-28 -6 20 -19 c20 -17 22 -17 38 -1 12 12 19 13 24 5 5
-8 10 -9 14 -2 12 21 -22 32 -68 23z"/>
<path d="M15160 1603 c-47 -2 -88 -7 -93 -12 -11 -11 -8 -11 243 -15 228 -3
250 -2 250 16 0 10 -76 5 -87 -6 -3 -3 -11 -2 -17 3 -14 11 -181 19 -296 14z"/>
<path d="M4925 1590 c-11 -5 -14 -9 -7 -9 7 -1 10 -5 7 -11 -4 -6 5 -10 19
-10 14 0 26 5 26 10 0 6 15 10 33 11 27 0 29 2 12 9 -11 5 -31 9 -45 9 -14 0
-34 -4 -45 -9z"/>
<path d="M6060 1592 c0 -5 16 -9 35 -9 19 0 35 4 35 9 0 4 -16 8 -35 8 -19 0
-35 -4 -35 -8z"/>
<path d="M14158 1587 c15 -7 26 -7 33 0 7 7 -1 10 -23 10 -31 1 -32 0 -10 -10z"/>
<path d="M14505 1590 c-3 -6 1 -7 9 -4 18 7 21 14 7 14 -6 0 -13 -4 -16 -10z"/>
<path d="M14600 1589 c0 -11 47 -12 54 -1 3 5 -8 9 -24 10 -17 0 -30 -4 -30
-9z"/>
<path d="M14420 1586 c0 -9 40 -13 46 -5 3 5 -6 9 -20 9 -14 0 -26 -2 -26 -4z"/>
<path d="M14980 1581 c0 -4 11 -6 25 -3 14 2 25 6 25 8 0 2 -11 4 -25 4 -14 0
-25 -4 -25 -9z"/>
<path d="M9677 1456 c-5 -14 4 -16 57 -16 l63 0 89 -98 c49 -55 138 -157 199
-228 160 -189 221 -247 280 -267 55 -19 142 -22 198 -6 49 13 115 73 138 124
26 56 25 130 -1 152 -11 10 -20 22 -20 28 0 5 5 3 10 -5 5 -8 10 -10 10 -4 0
6 -7 17 -15 24 -8 7 -15 9 -15 5 0 -5 -9 0 -20 10 -11 10 -20 13 -20 7 0 -7 5
-12 10 -12 6 0 10 -11 10 -25 0 -23 -17 -30 -31 -13 -3 5 -17 9 -32 10 -15 1
-27 8 -27 15 0 7 -4 13 -9 13 -5 0 -24 12 -41 26 -17 15 -42 27 -56 27 -13 0
-27 3 -30 8 -3 5 -10 9 -15 9 -6 0 -7 -5 -3 -11 9 -16 -29 6 -45 25 -8 9 -17
13 -23 10 -5 -3 -16 0 -24 7 -13 10 -17 10 -24 0 -6 -11 -9 -11 -13 0 -4 11
-9 9 -22 -6 -9 -12 -19 -16 -23 -10 -4 6 -14 10 -22 10 -8 0 -14 6 -12 13 1 8
-2 10 -8 7 -6 -4 -24 -9 -41 -12 -22 -3 -29 0 -29 11 0 19 -17 21 -22 4 -3 -8
-11 -5 -23 9 -10 12 -23 19 -28 16 -6 -4 -8 1 -4 10 4 12 1 17 -11 18 -31 2
-37 4 -60 17 -13 7 -37 14 -53 14 -18 1 -34 8 -40 20 -6 10 -18 17 -27 16 -11
-2 -16 3 -14 14 1 9 -2 19 -8 23 -6 4 -7 -1 -4 -12 5 -16 4 -16 -8 -2 -7 9
-33 18 -58 21 -25 3 -52 9 -61 12 -10 5 -19 1 -22 -8z"/>
<path d="M9480 1402 c0 -15 -2 -15 -11 -2 -8 12 -9 11 -4 -6 4 -14 0 -24 -10
-28 -8 -3 -15 -12 -15 -21 0 -8 -4 -15 -9 -15 -5 0 -11 -10 -13 -22 -2 -16 -9
-22 -22 -20 -14 3 -17 -1 -12 -14 5 -14 4 -15 -9 -4 -12 10 -15 10 -15 -4 0
-9 -4 -16 -9 -16 -5 0 -17 -7 -26 -16 -12 -13 -19 -14 -30 -4 -11 9 -15 9 -15
1 0 -6 -7 -11 -16 -11 -8 0 -12 5 -9 10 3 6 -3 10 -14 10 -10 0 -21 -5 -23
-10 -2 -6 -21 -11 -43 -13 -22 -1 -46 -9 -53 -17 -8 -8 -11 -10 -8 -4 3 7 -2
18 -11 25 -14 12 -15 11 -9 -9 5 -13 3 -22 -3 -22 -6 0 -11 -7 -11 -15 0 -15
-27 -34 -45 -32 -19 3 -22 -105 -5 -159 53 -159 300 -207 421 -82 57 59 70
112 68 265 -4 191 -9 241 -25 247 -9 3 -14 -1 -14 -12z"/>
<path d="M7511 1394 c0 -11 3 -14 6 -6 3 7 2 16 -1 19 -3 4 -6 -2 -5 -13z"/>
<path d="M11660 1391 c0 -17 -48 -61 -53 -48 -3 8 -10 5 -21 -10 -11 -15 -25
-21 -44 -19 -15 2 -30 -1 -34 -7 -8 -13 -56 -18 -63 -6 -4 5 -12 9 -18 9 -7 0
-6 -4 3 -10 19 -11 10 -19 -23 -22 -15 -1 -27 -6 -27 -11 0 -5 -6 -4 -13 2
-11 8 -20 4 -41 -19 -15 -17 -31 -28 -36 -25 -5 3 -21 -1 -34 -10 -14 -9 -30
-14 -35 -11 -5 4 -13 1 -18 -6 -5 -9 -10 -3 -15 17 -4 17 -6 -24 -4 -90 3
-132 16 -173 73 -227 91 -87 254 -92 344 -11 78 71 84 92 84 310 0 145 -3 194
-12 198 -7 2 -13 1 -13 -4z m-300 -135 c0 -2 -8 -10 -17 -17 -16 -13 -17 -12
-4 4 13 16 21 21 21 13z m-153 -98 c-3 -8 -6 -5 -6 6 -1 11 2 17 5 13 3 -3 4
-12 1 -19z"/>
<path d="M7041 1149 c4 -126 6 -137 32 -182 36 -60 94 -103 160 -117 36 -8
227 -10 627 -8 567 3 576 3 615 25 79 42 125 113 124 190 0 42 -16 108 -18 76
-1 -12 -19 -20 -62 -28 -12 -2 -37 -9 -55 -15 -23 -8 -39 -8 -52 -1 -11 6 -22
7 -26 4 -6 -7 -132 -15 -256 -17 -61 -1 -199 7 -354 19 -38 4 -77 10 -87 16
-10 5 -38 9 -62 9 -29 0 -51 7 -67 20 -12 11 -26 17 -31 15 -4 -3 -10 -1 -14
5 -3 5 -19 10 -36 10 -19 0 -29 5 -29 15 0 9 -12 18 -30 21 -18 4 -27 11 -23
18 3 6 -3 2 -15 -8 -20 -17 -24 -18 -39 -4 -12 11 -29 14 -52 11 -24 -4 -32
-2 -27 6 8 13 -15 11 -25 -2 -3 -5 -22 -9 -43 -10 -26 -1 -35 -6 -31 -16 3 -8
0 -11 -9 -8 -7 3 -19 0 -25 -6 -9 -9 -14 -9 -19 0 -6 9 -11 7 -20 -7 -7 -12
-8 -21 -2 -25 6 -3 10 -14 9 -23 0 -14 -2 -13 -9 3 -8 18 -9 17 -9 -8 -1 -17
-5 -26 -12 -22 -6 4 -8 13 -5 21 3 8 2 14 -2 14 -4 0 -7 29 -6 65 1 36 -3 68
-8 71 -6 4 -9 -42 -7 -127z"/>
</g>
</svg>
